# xmcd CD database file
#
# Track frame offsets:
#	150
#	22277
#	38957
#	62760
#	84260
#	105320
#	119747
#	137800
#	158867
#	177970
#	197290
#	219037
#	237545
#	258210
#	275647
#	294130
#	303022
#	322207
#
# Disc length: 4527 seconds
#
# Revision: 0
# Processed by: cddbd v1.5.1PL2 Copyright (c) Steve Scherf et al.
# Submitted via: CDex 1.51
#
DISCID=fd11ad12
DTITLE=Various Artist - 青春ドリーマーズ Vol.3
DYEAR=1900
DGENRE=J-pop
TTITLE0=君のハートはマリンブルー 杉山清貴＆オメガトライブ
TTITLE1=キャンディ 原田真二
TTITLE2=何も言えなくて…夏 JAYWALK
TTITLE3=大阪で生まれた女 BORO
TTITLE4=涙をふいて 三好鉄生
TTITLE5=22才の別れ 風
TTITLE6=マリエ ブレッド＆バター
TTITLE7=昴-すばる- 谷村新司
TTITLE8=わかって下さい 因幡晃
TTITLE9=雨に泣いてる… 柳ジョージ＆レイニーウッド
TTITLE10=メリー・ジェーン つのだ☆ひろ
TTITLE11=カリフォルニア・コネクション 水谷豊
TTITLE12=j・e・a・l・o・u・s・y 池田聡
TTITLE13=夏のクラクション 稲垣潤一
TTITLE14=悲しくて 雅夢
TTITLE15=高円寺 吉田拓郎
TTITLE16=黒の舟唄 長谷川きよし
TTITLE17=ビューティフル・サンデー トランザム
EXTD=
EXTT0=
EXTT1=
EXTT2=
EXTT3=
EXTT4=
EXTT5=
EXTT6=
EXTT7=
EXTT8=
EXTT9=
EXTT10=
EXTT11=
EXTT12=
EXTT13=
EXTT14=
EXTT15=
EXTT16=
EXTT17=
PLAYORDER=
